PathFileType	4	(X/Y/Z)	pose_F01_0-80.trc
DataRate	CameraRate	NumFrames	NumMarkers	Units	OrigDataRate	OrigDataStartFrame	OrigNumFrames
30	30	9	21	m	30	13	80
Frame#	Time	CHip			RHip			RKnee			RAnkle			RBigToe			RSmallToe			RHeel			LHip			LKnee			LAnkle			LBigToe			LSmallToe			LHeel			Neck			Nose			RShoulder			RElbow			RWrist			LShoulder			LElbow			LWrist			
		X1	Y1	Z1	X2	Y2	Z2	X3	Y3	Z3	X4	Y4	Z4	X5	Y5	Z5	X6	Y6	Z6	X7	Y7	Z7	X8	Y8	Z8	X9	Y9	Z9	X10	Y10	Z10	X11	Y11	Z11	X12	Y12	Z12	X13	Y13	Z13	X14	Y14	Z14	X15	Y15	Z15	X16	Y16	Z16	X17	Y17	Z17	X18	Y18	Z18	X19	Y19	Z19	X20	Y20	Z20	X21	Y21	Z21	
13	0.43333333333333335	-0.2287233247708799	1.8345329956064493	-0.5400950266804834	-0.24336040298811773	1.8307185713520275	-0.47093060143966037	-0.23946338639346698	1.6976258087529748	-0.48759597066853694													-0.211983870952531	1.8360122000360548	-0.5970868675758069	-0.21189043912836955	1.7097650582461132	-0.5716968810530045	-0.20518243647423975	1.5764124093794663	-0.5662455719945358	-0.21975368754248478	1.5459666517178958	-0.6173576454784288	-0.20727428343668078	1.5559390258960903	-0.6310285691843962				-0.22199101050280326	1.9882349719728474	-0.5400492785317651	-0.22658060755357326	2.039307679474109	-0.603036240456111	-0.2432290516428043	1.9831860308362181	-0.4514121525390114	-0.2584396678961007	1.9064292930013664	-0.4149142828758261	-0.26814480731376156	1.8333046757548328	-0.39505564421118583	-0.19579528469033497	1.9971392222447897	-0.630805531880944	-0.17177708477407222	2.0010226368764044	-0.7495133411937995	-0.17327668017800654	2.031101271683089	-0.7927739148555013
14	0.4666666666666667	-0.23145961943820928	1.8365781658223712	-0.532670503181718	-0.24402773138564626	1.8321680377698863	-0.4656824263792008	-0.23946338639346698	1.6976258087529748	-0.48759597066853694													-0.2137679823121556	1.8387577096524168	-0.5951533006197011	-0.21303802584056056	1.7097160735591816	-0.5662240911687009	-0.20519994099764854	1.5764279295449248	-0.5662276477202349	-0.21727927125463006	1.5439435660875078	-0.6198771891761962	-0.207544027518277	1.555202247706777	-0.6352161329163373				-0.22503164015747976	1.986883388145693	-0.5319842705066057	-0.22903743594889017	2.042000621748827	-0.584342622520544	-1.8532776110120586	1.8942011249034838	1.3606158964970518	-0.2607498423539355	1.9027648579624434	-0.4061760273209536	-0.27603185465404284	1.8271227258227574	-0.3886369639061688	-0.1977800270684024	1.996292824660455	-0.6279866309511487	-0.17246264938314118	1.9934428620316138	-0.750469615143648	-0.15360714097116843	2.0211784944081614	-0.8380262619861898
15	0.5	-0.23413034522430465	1.8369153250558123	-0.5302764924450649	-0.24852412547220606	1.831792874649425	-0.4612506551071079	-0.23946338639346698	1.6976258087529748	-0.48759597066853694													-0.21437320248973582	1.8382667635245478	-0.5947790588153435	-0.21429207768498112	1.708171154844698	-0.5690110048345209	-0.20521744552105733	1.5764434497103834	-0.5662097234459339	-0.21659987978922632	1.5456407592323755	-0.6161476269613662	-0.20583605771673716	1.5564230745798402	-0.6283947181185537				-0.22699280987671316	1.9871370952008176	-0.5295845746180647	-0.23452723386833454	2.0436133735882303	-0.5666384406853486	-0.24900157011530147	1.978312869735719	-0.43515039808792705	-0.26489700095109353	1.8990366083132488	-0.4015398413705051	-0.2783849207107932	1.831644162518568	-0.3872870718000338	-0.19987147085541823	1.9991946339110755	-0.6265672956507238	-0.17465476075094333	1.985051985792187	-0.7327362984249731	-0.15760103857029784	2.0008216579766187	-0.8142171430250171
16	0.5333333333333333	-0.234820347563067	1.8370985690306423	-0.5334249681372104	-0.24821990999721572	1.8316466860043183	-0.4611434458759337	-0.23946338639346698	1.6976258087529748	-0.48759597066853694													-0.21408309828375738	1.8376657521374635	-0.594875960493576	-0.21433781536610022	1.7082562965780643	-0.5689609457479217	-0.20523495004446612	1.5764589698758422	-0.566191799171633	-0.21662427950303736	1.5430128724227563	-0.6159792547138305	-0.2068397420696769	1.55379221240434	-0.6313522139757526				-0.22719197550069928	1.9864051044877225	-0.5295019391017574	-0.23837236006410364	2.0475563102485426	-0.5624976590738058	-0.24917923295418817	1.9793763620398304	-0.43575879399446293	-0.2629286952888989	1.8977034306090943	-0.39487590444633003	-0.28019200448323495	1.8343939484401142	-0.40856574572586957	-0.20329149759095091	1.9985370104270024	-0.6188969644764724	-0.1768468721187455	1.9766611095527598	-0.7150029817062983	-0.16159493616942727	1.9804648215450762	-0.7904080240638444
17	0.5666666666666667	-0.23531049486668854	1.8339482368267803	-0.5303600470535634	-0.24810168816067724	1.8286155815309144	-0.4607712738688865	-0.23946338639346698	1.6976258087529748	-0.48759597066853694													-0.21551026701983952	1.8381242581410595	-0.5927459752574828	-0.21325907234777872	1.7073753544034138	-0.5657227350972303	-0.20523495004446612	1.5764589698758422	-0.566191799171633	-0.21546777376076195	1.5450714094281697	-0.6129502571424349	-0.2047347618636182	1.5559145263950491	-0.6251621280900508				-0.22903493711813874	1.9851572525293628	-0.5271296204192679	-0.23726506900634978	2.049682711945755	-0.568191101076493	-0.25207533372836793	1.9831467943907453	-0.4457799999331673	-0.2649063196129342	1.9044737852084306	-0.40230080997120754	-0.2782887854502991	1.8388135128524428	-0.44665866775891433	-0.19890332646279024	1.9907514962985036	-0.6017350576006576	-0.17903898348654765	1.9682702333133328	-0.6972696649876233	-0.16558883376855668	1.9601079851135337	-0.7665989051026717
18	0.6	-0.23580064217031005	1.8307979046229186	-0.5272951259699165	-0.24798346632413876	1.8255844770575105	-0.46039910186183935	-0.23946338639346698	1.6976258087529748	-0.48759597066853694													-0.2159008019352774	1.8328479328962617	-0.592035884153876	-0.2121803293294572	1.7064944122287633	-0.5624845244465388	-0.20523495004446612	1.5764589698758422	-0.566191799171633	-0.21937208723688767	1.5441862714024253	-0.6176743813155915	-0.20623743169008013	1.5563086119142386	-0.6325397824548886				-0.22909545262110692	1.9867853708155723	-0.5274851110274547	-0.23881923663973995	2.048850549245585	-0.582350149361383	-0.2522162223805661	1.9861903346138052	-0.4547540502713794	-0.27074220975350677	1.9081009363491621	-0.4050391653350908	-0.26844889237841374	1.8716464646368454	-0.4795102637202507	-0.20025306765750744	1.9900396498773354	-0.5967243006459003	-0.18123109485434982	1.959879357073906	-0.6795363482689485	-0.16958273136768612	1.939751148681991	-0.742789786141499
19	0.6333333333333333	-0.23108669453588232	1.833312706355009	-0.5199662537648393	-0.24521113441679274	1.828740614445927	-0.4597765551564956	-0.23946338639346698	1.6976258087529748	-0.48759597066853694													-0.21524364456737366	1.8374620886986694	-0.5888861739381445	-0.21443018138716352	1.7050206054754309	-0.5599081573411472	-0.20523495004446612	1.5764589698758422	-0.566191799171633	-0.21748505120346986	1.5451558908338021	-0.6195019593478568	-0.20657104554159048	1.55499684899486	-0.6319512360234396				-0.22713103442321655	1.985309082521273	-0.529295178281949	-0.23688455296187072	2.0474950669471745	-0.5847343894777258	-0.25234725125321095	1.9862003142563598	-0.45538897446246657	-0.2682746693078532	1.9083021008863752	-0.41302709711035884	-0.2591343385647734	1.8758531154532738	-0.5208109049737986	-0.20098486767718593	1.9878266648808254	-0.5990213574688364	-0.18342320622215197	1.951488480834479	-0.6618030315502736	-0.17357662896681553	1.9193943122504484	-0.7189806671803264
20	0.6666666666666666	-0.2313168410202908	1.8328146956889593	-0.5196994376648512	-0.24625118997619108	1.827353578499799	-0.4626442317633377	-0.23946338639346698	1.6976258087529748	-0.48759597066853694													-0.21461984769513195	1.8368047382663903	-0.5853945957759399	-0.21401176792962373	1.7053137042230024	-0.5603558365028977	-0.20523495004446612	1.5764589698758422	-0.566191799171633	-0.21687875932360048	1.5441011607627162	-0.6156152388760102	-0.20614628655447234	1.5551639986155101	-0.6277789845845669				-0.22707519744457447	1.9872074395629264	-0.529589378780305	-0.23283130220161577	2.047768256087773	-0.5890598194202549	-0.25244033250399006	1.9851667086296292	-0.46339795627246905	-0.27252765788153954	1.9080075297208738	-0.43451272887131565	-0.26406962416741975	1.8815226164966086	-0.5498857387514232	-0.19921994146788907	1.9892679391588657	-0.5931207532914085	-0.18561531758995414	1.9430976045950519	-0.6440697148315988	-0.17757052656594496	1.899037475818906	-0.6951715482191536
21	0.7	-0.23127527884421525	1.8292312652788254	-0.5192950222893288	-0.24638912303693572	1.8250183171631362	-0.4623783831303241	-0.23946338639346698	1.6976258087529748	-0.48759597066853694													-0.21375066841053894	1.8348951993417186	-0.5819837744298912	-0.21139272541027548	1.7048055001193843	-0.5588942212049547	-0.20523495004446612	1.5764589698758422	-0.566191799171633	-0.21666872502967088	1.5459729880395918	-0.6162338880200229	-0.20569246435857286	1.555486324675775	-0.6287371222056743				-0.22705514540215294	1.9852005261768135	-0.5293949514982219	-0.23073959653673695	2.0477876896652947	-0.5911934008964076	-0.25230336180462143	1.9841341204159222	-0.46294076036161114	-0.26985589387012904	1.9065597565570866	-0.4420189275557813	-0.23758099351794823	1.8902635130670178	-0.5884133243846013	-0.19809722416795497	1.9876711229431765	-0.5982162889702985	-0.1878074289577563	1.934706728355625	-0.626336398112924	-0.18156442416507437	1.8786806393873632	-0.671362429257981
